HIERARCHY
ROOT Hips
{
  OFFSET -190.439 83.9362 371.868
  CHANNELS 6 Xposition Yposition Zposition Zrotation Xrotation Yrotation
  JOINT RightUpLeg
  {
    OFFSET -8.9458 -8.66707 0.101652
    CHANNELS 3 Zrotation Xrotation Yrotation
    JOINT RightLeg
    {
      OFFSET 0 -44.4227 1.3727
      CHANNELS 3 Zrotation Xrotation Yrotation
      JOINT RightFoot
      {
        OFFSET 0.253549 -42.0924 -1.46059
        CHANNELS 3 Zrotation Xrotation Yrotation
        JOINT RightToes
        {
          OFFSET 0.04 -4.41509 8.4991
          CHANNELS 3 Zrotation Xrotation Yrotation
          End Site
          {
            OFFSET -0.08 -0.137448 9.77979
          }
        }
      }
    }
  }
  JOINT Spine
  {
    OFFSET 0 11.8905 0
    CHANNELS 3 Zrotation Xrotation Yrotation
    JOINT Spine1
    {
      OFFSET 0 25.6574 0.127663
      CHANNELS 3 Zrotation Xrotation Yrotation
      JOINT HEad
      {
        OFFSET 0 8.73416 0.011341
        CHANNELS 3 Zrotation Xrotation Yrotation
        End Site
        {
          OFFSET -0.29 12.7742 2.51395
        }
      }
      JOINT LeftShoulder1
      {
        OFFSET 8.99 -0.362252 -0.22
        CHANNELS 3 Zrotation Xrotation Yrotation
        JOINT LeftArm
        {
          OFFSET 10.2827 -0.00338 0.322123
          CHANNELS 3 Zrotation Xrotation Yrotation
          JOINT LeftForeArm
          {
            OFFSET 32.7669 0.099144 -1.42434
            CHANNELS 3 Zrotation Xrotation Yrotation
            JOINT LeftHand
            {
              OFFSET 27.5643 0.085362 1.02216
              CHANNELS 3 Zrotation Xrotation Yrotation
              End Site
              {
                OFFSET 16.7443 -0.6 1.50291
              }
            }
          }
        }
      }
      JOINT RightShoulder
      {
        OFFSET -8.99 -0.362252 -0.22
        CHANNELS 3 Zrotation Xrotation Yrotation
        JOINT RightArm
        {
          OFFSET -10.2827 -0.00338 0.322123
          CHANNELS 3 Zrotation Xrotation Yrotation
          JOINT RightForeArm
          {
            OFFSET -32.8971 0.099144 -1.42434
            CHANNELS 3 Zrotation Xrotation Yrotation
            JOINT RightHand
            {
              OFFSET -27.4921 0.085362 1.02216
              CHANNELS 3 Zrotation Xrotation Yrotation
              End Site
              {
                OFFSET -16.6312 -0.6 1.50291
              }
            }
          }
        }
      }
    }
  }
  JOINT LeftUpLeg
  {
    OFFSET 8.9458 -8.66707 0.101652
    CHANNELS 3 Zrotation Xrotation Yrotation
    JOINT LeftLeg
    {
      OFFSET 0 -44.4227 1.3727
      CHANNELS 3 Zrotation Xrotation Yrotation
      JOINT LeftFoot
      {
        OFFSET -0.253549 -42.0924 -1.46059
        CHANNELS 3 Zrotation Xrotation Yrotation
        JOINT LeftToes
        {
          OFFSET -0.04 -4.41509 8.4991
          CHANNELS 3 Zrotation Xrotation Yrotation
          End Site
          {
            OFFSET 0.08 -0.047448 9.77979
          }
        }
      }
    }
  }
}
MOTION
Frames:	12
Frame Time:	0.0166667
-217.992 95.6135 381.826 26.5661 19.1049 91.5571 -36.2218 6.02355 11.8176 47.7328 15.1566 -47.2099 -15.1813 -3.14826 -0.411778 0.0462048 0.000533403 0.662642 -31.9174 41.9905 16.8751 0.0195281 -0.01717 -0.00854599 -7.37462 8.34341 7.4231 -1.59028e-015 -3.97569e-016 -1.59028e-015 -158.104 -55.289 -139.196 -84.6865 59.1801 -27.5473 20.7672 13.3386 -20.0466 14.9139 -0.851189 -2.49206 100.212 -3.59205 65.5348 29.419 57.4846 85.7393 10.9952 27.7602 5.85495 17.3445 -35.4921 73.9062 73.4816 54.6371 -54.5268 4.22098 1.07814 -1.12475 2.01517e-008 1.56022e-007 -4.8713e-009 
-218.381 95.7955 382.266 21.9164 14.6705 94.9749 -30.5847 3.75689 8.70786 46.0455 13.6434 -47.4494 -13.4153 -2.94264 -0.417176 0.0462048 0.000533403 0.662642 -25.2873 38.8958 12.6065 0.0188467 -0.01169 -0.00875714 -7.71218 8.763 8.22925 -3.18055e-015 1.59028e-015 -1.59028e-015 -156.316 -54.3593 -137.24 -85.9068 59.2505 -26.2112 20.8748 13.8668 -19.2387 16.2316 -1.28351 -3.0894 100.999 -5.43825 66.491 31.9087 58.0558 84.6708 10.6718 27.6095 5.76064 19.009 -37.4215 71.5637 61.8443 52.1651 -43.9818 4.32285 0.487583 -1.03767 2.01517e-008 1.56022e-007 -4.87131e-009 
-218.521 95.8631 382.551 18.2238 10.693 97.594 -25.7506 1.19768 6.4996 43.8436 14.439 -48.2044 -9.51599 -2.65611 -0.249791 0.0462048 0.000533403 0.662642 -19.4518 35.4431 8.88442 0.0172141 -0.00506002 -0.00883981 -8.32084 9.59497 9.14736 1.59028e-015 -2.38542e-015 -1.59028e-015 -154.593 -54.3691 -134.84 -86.0685 59.29 -25.8142 20.8323 14.592 -18.4502 17.1092 -1.0713 -3.57213 101.474 -6.79159 67.3091 33.507 58.2801 84.3177 12.0928 26.2105 5.1218 20.1759 -38.357 68.0517 52.2462 50.2323 -35.4961 3.15764 -0.00159908 -0.851124 2.01517e-008 1.56022e-007 -4.8713e-009 
-218.394 95.6902 382.67 15.3392 7.21073 99.6075 -21.6165 -1.57618 5.0444 41.6962 16.6961 -49.6452 -4.34595 -2.19777 -0.0293554 0.0462048 0.000533403 0.662642 -14.2792 31.8263 5.66559 0.0149363 0.00134997 -0.00881714 -9.17223 10.7496 10.1527 -6.62086e-032 1.19271e-015 3.18055e-015 -153.087 -55.1425 -132.258 -85.6366 59.3617 -26.0494 20.5994 15.3321 -18.1883 17.7024 -0.362363 -3.89892 101.603 -7.87162 67.9497 34.455 58.2846 84.4346 11.9687 25.7715 4.91995 20.8693 -38.3138 63.4807 43.0424 48.5044 -27.1045 1.80468 -0.528451 -0.658771 2.01517e-008 1.56022e-007 -4.87131e-009 
-217.967 95.2533 382.621 13.1582 4.22042 101.146 -18.1512 -4.43325 4.22598 40.0312 19.9415 -51.8754 1.63703 -1.54909 0.139445 0.0462048 0.000533403 0.662642 -9.64836 28.1903 2.91063 0.0123615 0.00703999 -0.00871225 -8.7899 11.4568 10.864 3.18055e-015 -1.39149e-015 -0 -151.824 -56.5113 -129.637 -84.9014 59.4632 -26.6841 20.3662 16.0443 -17.8408 17.9779 0.734689 -4.14318 101.545 -8.72519 68.3922 34.9289 58.1831 84.8502 12.8533 24.7499 4.52399 21.4774 -37.5286 58.1688 34.4149 46.6078 -19.1928 0.259706 -1.04215 -0.510597 2.01517e-008 1.56022e-007 -4.87131e-009 
-217.352 94.6451 382.457 11.5884 1.69081 102.291 -15.3368 -7.07995 3.87125 39.2243 22.0697 -54.1075 6.50706 -0.897954 0.0664607 0.0462048 0.000533403 0.662642 -5.45438 24.6301 0.588461 0.00962256 0.01198 -0.00854829 -7.2996 11.8083 11.2515 -1.59028e-015 0 1.59028e-015 -150.774 -58.3275 -127.063 -84.0424 59.5692 -27.5612 20.0762 16.658 -17.7453 17.9219 2.12871 -4.35026 101.426 -9.38017 68.6633 35.0802 58.0128 85.4161 12.8314 24.3328 4.36495 22.7473 -35.6384 52.3279 26.1998 43.3925 -12.6926 -12.7486 -1.84067 -0.608862 2.01517e-008 1.56022e-007 -4.87131e-009 
-216.482 93.8049 382.13 10.5397 -0.425825 103.091 -13.29 -9.33169 3.89226 39.3421 23.9063 -56.4419 10.9541 -0.420338 0.00958243 0.0462048 0.000533403 0.662642 -1.61123 21.2109 -1.32988 0.00662503 0.0163 -0.00834839 -4.80892 11.8572 11.3069 1.59028e-015 7.95139e-016 -0 -149.89 -60.4554 -124.585 -83.1641 59.6532 -28.5595 19.8196 17.1841 -17.5418 17.558 3.73729 -4.53427 101.326 -9.85189 68.7951 35.0112 57.8181 86.0256 13.4348 23.631 4.12308 23.3079 -34.4261 46.038 19.0358 40.3694 -5.83124 -8.19085 -2.10595 -0.680076 2.01517e-008 1.56022e-007 -4.87131e-009 
-215.484 92.7871 381.671 9.92302 -2.18712 103.586 -11.9141 -11.0913 4.18088 40.17 25.7254 -58.747 15.3007 -0.0145415 -0.0533253 0.0462048 0.000533403 0.662642 1.95877 17.9772 -2.88426 0.00307882 0.0183063 -0.00801539 -2.92257 12.2661 11.3859 7.95139e-016 8.94531e-016 4.77083e-015 -149.154 -62.7752 -122.252 -82.3428 59.7022 -29.5706 19.5421 17.5914 -17.4412 16.9241 5.48894 -4.68167 101.285 -10.1553 68.8347 34.8116 57.6066 86.5775 13.5269 23.2598 3.98551 24.8702 -32.0781 39.4256 12.8787 36.1545 -0.52906 -20.4734 -2.95708 -0.972273 2.01517e-008 1.56022e-007 -4.87131e-009 
-214.392 91.726 381.102 9.65419 -3.65067 103.81 -11.0178 -12.2297 4.68588 41.3546 27.4735 -60.7792 19.6869 0.443582 -0.222133 0.0462048 0.000533403 0.662642 5.31313 14.9615 -4.12413 -0.0017167 0.0198034 -0.00746635 -1.56476 12.9638 11.4765 7.95139e-016 1.49089e-015 1.59028e-015 -148.569 -65.1839 -120.113 -81.6198 59.7128 -30.5003 19.2977 17.8948 -17.2506 16.0664 7.3233 -4.77785 101.32 -10.2933 68.8193 34.5495 57.3962 86.9902 14.024 22.7416 3.80336 25.8647 -30.9484 32.4144 8.02137 33.273 5.51264 -15.9738 -3.22966 -1.0464 2.01517e-008 1.56022e-007 -4.87131e-009 
-213.208 90.5205 380.375 9.65814 -4.86664 103.798 -10.6972 -12.9187 5.32464 43.2314 29.3518 -62.7588 24.1747 0.773413 -0.362725 0.0462048 0.000533403 0.662642 8.48515 12.1872 -5.10577 -0.00650804 0.020843 -0.00674565 -0.665708 13.8877 11.5882 -9.93923e-017 9.31803e-016 1.59028e-015 -148.153 -67.6044 -118.219 -81.0099 59.6888 -31.2859 19.0486 18.0683 -17.118 15.0189 9.19283 -4.81009 101.441 -10.2703 68.7829 34.2928 57.1822 87.1929 14.2316 22.4134 3.66756 27.3682 -29.3881 25.0728 3.79877 30.7147 12.1755 -20.0632 -3.84014 -1.25763 2.01517e-008 1.56022e-007 -4.8713e-009 
-211.953 89.2973 379.49 9.87562 -5.86316 103.593 -11.5311 -12.4525 5.68841 45.7796 30.6437 -63.6897 28.61 1.07074 -0.611926 0.0462048 0.000533403 0.662642 11.4798 9.67085 -5.90366 -0.0100374 0.0214768 -0.00589771 -0.165248 14.989 11.7453 3.97569e-016 -6.95746e-016 1.59028e-015 -147.951 -69.9906 -116.627 -80.5143 59.638 -31.8924 18.8353 18.1294 -16.9483 13.8106 11.0657 -4.76842 101.642 -10.0982 68.746 34.0922 56.9665 87.1529 14.6867 22.0412 3.51779 28.6708 -28.4003 17.3122 0.244349 28.9364 19.4508 -20.2686 -4.33183 -1.45796 2.01517e-008 1.56022e-007 -4.8713e-009 
-210.631 88.09 378.43 10.2491 -6.64168 103.25 -13.2796 -11.0866 5.80903 48.841 31.4082 -63.7281 32.8627 1.25185 -0.892674 0.0462048 0.000533403 0.662642 14.0708 7.80768 -6.45379 -0.0114008 0.0217567 -0.00496695 0.2609 15.8545 11.8516 -7.95139e-016 -2.98177e-016 -1.59028e-015 -148.117 -71.9497 -115.739 -80.1558 59.5744 -32.3001 18.6373 18.0737 -16.8361 12.7289 12.5298 -4.70098 101.877 -9.80476 68.7014 33.9808 56.7502 86.9065 14.9629 21.8132 3.38761 29.8022 -27.6351 9.072 -3.29045 28.0308 27.4987 -22.4457 -4.60277 -1.72944 2.01517e-008 1.56022e-007 -4.87131e-009 
